<svg width="69" height="29" viewBox="0 0 69 29" fill="none" xmlns="http://www.w3.org/2000/svg">
<path d="M7.82 22.86C6.28 22.86 4.93 22.59 3.77 22.05C2.61 21.49 1.71 20.71 1.07 19.71C0.43 18.71 0.11 17.54 0.11 16.2H3.26C3.26 16.96 3.43 17.66 3.77 18.3C4.13 18.92 4.64 19.42 5.3 19.8C5.98 20.16 6.82 20.34 7.82 20.34C8.64 20.34 9.35 20.21 9.95 19.95C10.57 19.69 11.05 19.32 11.39 18.84C11.73 18.34 11.9 17.76 11.9 17.1C11.9 16.34 11.73 15.73 11.39 15.27C11.05 14.79 10.59 14.39 10.01 14.07C9.43 13.75 8.77 13.48 8.03 13.26C7.29 13.02 6.53 12.76 5.75 12.48C4.07 11.9 2.81 11.18 1.97 10.32C1.15 9.44 0.74 8.3 0.74 6.9C0.74 5.76 1.01 4.76 1.55 3.9C2.11 3.04 2.9 2.37 3.92 1.89C4.94 1.39 6.14 1.14 7.52 1.14C8.88 1.14 10.06 1.39 11.06 1.89C12.08 2.39 12.88 3.08 13.46 3.96C14.04 4.84 14.34 5.87 14.36 7.05H11.18C11.18 6.45 11.03 5.9 10.73 5.4C10.45 4.88 10.03 4.46 9.47 4.14C8.91 3.82 8.22 3.66 7.4 3.66C6.72 3.64 6.11 3.75 5.57 3.99C5.03 4.21 4.6 4.54 4.28 4.98C3.98 5.42 3.83 5.98 3.83 6.66C3.83 7.28 3.96 7.79 4.22 8.19C4.5 8.57 4.89 8.9 5.39 9.18C5.91 9.46 6.51 9.73 7.19 9.99C7.89 10.23 8.67 10.5 9.53 10.8C10.57 11.14 11.5 11.56 12.32 12.06C13.14 12.54 13.79 13.16 14.27 13.92C14.75 14.68 14.99 15.66 14.99 16.86C14.99 17.9 14.72 18.88 14.18 19.8C13.64 20.7 12.84 21.44 11.78 22.02C10.72 22.58 9.4 22.86 7.82 22.86ZM21.8394 22.86C20.6594 22.86 19.6394 22.62 18.7794 22.14C17.9194 21.64 17.2494 20.9 16.7694 19.92C16.3094 18.94 16.0794 17.7 16.0794 16.2V7.62H19.0794V15.9C19.0794 17.36 19.3794 18.46 19.9794 19.2C20.5794 19.94 21.4794 20.31 22.6794 20.31C23.4794 20.31 24.1994 20.12 24.8394 19.74C25.4794 19.34 25.9794 18.77 26.3394 18.03C26.6994 17.29 26.8794 16.39 26.8794 15.33V7.62H29.8794V22.5H27.2094L26.9994 19.98H26.9394C26.4594 20.86 25.7794 21.56 24.8994 22.08C24.0394 22.6 23.0194 22.86 21.8394 22.86ZM40.2716 22.86C39.4716 22.86 38.7216 22.75 38.0216 22.53C37.3416 22.31 36.7316 21.99 36.1916 21.57C35.6516 21.13 35.1916 20.61 34.8116 20.01H34.7816L34.5116 22.5H31.8716V1.11H34.8716V9.93C35.3516 9.25 36.0216 8.64 36.8816 8.1C37.7616 7.54 38.8616 7.26 40.1816 7.26C41.6616 7.26 42.9416 7.6 44.0216 8.28C45.1216 8.96 45.9716 9.89 46.5716 11.07C47.1916 12.25 47.5016 13.59 47.5016 15.09C47.5016 16.57 47.1916 17.9 46.5716 19.08C45.9716 20.24 45.1316 21.16 44.0516 21.84C42.9716 22.52 41.7116 22.86 40.2716 22.86ZM39.6716 20.28C40.6316 20.28 41.4616 20.06 42.1616 19.62C42.8816 19.18 43.4416 18.57 43.8416 17.79C44.2416 17.01 44.4416 16.1 44.4416 15.06C44.4416 14.02 44.2416 13.11 43.8416 12.33C43.4416 11.55 42.8816 10.94 42.1616 10.5C41.4616 10.06 40.6316 9.84 39.6716 9.84C38.7316 9.84 37.9016 10.06 37.1816 10.5C36.4616 10.94 35.8916 11.55 35.4716 12.33C35.0716 13.11 34.8716 14.02 34.8716 15.06C34.8716 16.1 35.0716 17.01 35.4716 17.79C35.8916 18.57 36.4616 19.18 37.1816 19.62C37.9016 20.06 38.7316 20.28 39.6716 20.28ZM49.576 28.89L53.206 20.82H52.336L46.336 7.62H49.606L54.376 18.42H54.406L59.146 7.62H62.296L52.756 28.89H49.576ZM65.8471 19.08C65.1991 19.08 64.6471 19.332 64.1911 19.836C63.7351 20.316 63.5071 20.916 63.5071 21.636C63.5071 22.332 63.7351 22.92 64.1911 23.4C64.6471 23.904 65.1991 24.156 65.8471 24.156C66.4951 24.156 67.0351 23.904 67.4671 23.4C67.9231 22.92 68.1511 22.332 68.1511 21.636C68.1511 20.916 67.9231 20.316 67.4671 19.836C67.0351 19.332 66.4951 19.08 65.8471 19.08ZM65.9191 0.251999C66.5671 0.251999 67.1551 0.419999 67.6831 0.755999C68.2351 1.092 68.5111 1.62 68.5111 2.34C68.5111 3.036 68.3551 3.948 68.0431 5.076C67.1071 8.412 66.6391 12.252 66.6391 16.596C66.6391 17.004 66.4231 17.208 65.9911 17.208C65.7991 17.208 65.6311 17.148 65.4871 17.028C65.3431 16.908 65.2711 16.764 65.2711 16.596C65.2711 12.252 64.8031 8.412 63.8671 5.076C63.5551 3.948 63.3991 3.06 63.3991 2.412C63.3991 1.74 63.6511 1.212 64.1551 0.827998C64.6831 0.443999 65.2711 0.251999 65.9191 0.251999Z" fill="black"/>
</svg>
